<mxfile host="app.diagrams.net" modified="2023-01-10T13:25:26.800Z" agent="5.0 (Macintosh; Intel Mac OS X 10_15_7) AppleWebKit/537.36 (KHTML, like Gecko) Chrome/108.0.0.0 Safari/537.36" etag="RGw3obtq6i2GMuIiSkGj" version="20.8.3" type="github">
  <diagram name="Page-1" id="c7558073-3199-34d8-9f00-42111426c3f3">
    <mxGraphModel dx="1194" dy="692" grid="1" gridSize="10" guides="1" tooltips="1" connect="1" arrows="1" fold="1" page="1" pageScale="1" pageWidth="826" pageHeight="1169" background="none" math="0" shadow="0">
      <root>
        <mxCell id="0" />
        <mxCell id="1" parent="0" />
        <mxCell id="5kpx9OWCmVV_XEbnzuug-98" style="edgeStyle=orthogonalEdgeStyle;rounded=0;orthogonalLoop=1;jettySize=auto;html=1;exitX=0.5;exitY=1;exitDx=0;exitDy=0;" edge="1" parent="1">
          <mxGeometry relative="1" as="geometry">
            <mxPoint x="458" y="150" as="sourcePoint" />
            <mxPoint x="458" y="150" as="targetPoint" />
          </mxGeometry>
        </mxCell>
        <mxCell id="5kpx9OWCmVV_XEbnzuug-99" value="Outlet KYC flow" style="text;html=1;strokeColor=none;fillColor=none;align=center;verticalAlign=middle;whiteSpace=wrap;rounded=0;fontSize=16;" vertex="1" parent="1">
          <mxGeometry x="333" y="10" width="160" height="30" as="geometry" />
        </mxCell>
        <mxCell id="5kpx9OWCmVV_XEbnzuug-101" value="&lt;font style=&quot;font-size: 12px;&quot;&gt;Login into the admin panel&lt;/font&gt;" style="rounded=1;whiteSpace=wrap;html=1;fontSize=10;fillColor=#d5e8d4;strokeColor=#82b366;" vertex="1" parent="1">
          <mxGeometry x="153" y="80" width="120" height="60" as="geometry" />
        </mxCell>
        <mxCell id="5kpx9OWCmVV_XEbnzuug-103" value="" style="endArrow=classic;html=1;rounded=0;fontSize=10;exitX=1;exitY=0.5;exitDx=0;exitDy=0;" edge="1" parent="1" source="5kpx9OWCmVV_XEbnzuug-101">
          <mxGeometry width="50" height="50" relative="1" as="geometry">
            <mxPoint x="463" y="110" as="sourcePoint" />
            <mxPoint x="353" y="110" as="targetPoint" />
          </mxGeometry>
        </mxCell>
        <mxCell id="5kpx9OWCmVV_XEbnzuug-104" value="&lt;font style=&quot;font-size: 12px;&quot;&gt;Go to the Outlet Management page&lt;/font&gt;" style="rounded=0;whiteSpace=wrap;html=1;fontSize=10;fillColor=#dae8fc;strokeColor=#6c8ebf;" vertex="1" parent="1">
          <mxGeometry x="353" y="80" width="120" height="60" as="geometry" />
        </mxCell>
        <mxCell id="5kpx9OWCmVV_XEbnzuug-105" value="&lt;font style=&quot;font-size: 12px;&quot;&gt;Click on outlet you want to do KYC&lt;/font&gt;" style="rounded=0;whiteSpace=wrap;html=1;fontSize=10;fillColor=#dae8fc;strokeColor=#6c8ebf;" vertex="1" parent="1">
          <mxGeometry x="553" y="80" width="120" height="60" as="geometry" />
        </mxCell>
        <mxCell id="5kpx9OWCmVV_XEbnzuug-106" value="Is KYC completed?" style="rhombus;whiteSpace=wrap;html=1;fontSize=12;fillColor=#ffe6cc;strokeColor=#d79b00;" vertex="1" parent="1">
          <mxGeometry x="563" y="320" width="100" height="100" as="geometry" />
        </mxCell>
        <mxCell id="5kpx9OWCmVV_XEbnzuug-107" value="" style="endArrow=classic;html=1;rounded=0;fontSize=12;entryX=0;entryY=0.5;entryDx=0;entryDy=0;exitX=1;exitY=0.5;exitDx=0;exitDy=0;" edge="1" parent="1" source="5kpx9OWCmVV_XEbnzuug-104" target="5kpx9OWCmVV_XEbnzuug-105">
          <mxGeometry width="50" height="50" relative="1" as="geometry">
            <mxPoint x="463" y="170" as="sourcePoint" />
            <mxPoint x="513" y="120" as="targetPoint" />
          </mxGeometry>
        </mxCell>
        <mxCell id="5kpx9OWCmVV_XEbnzuug-112" value="" style="endArrow=classic;html=1;rounded=0;fontSize=12;entryX=0.5;entryY=0;entryDx=0;entryDy=0;exitX=0.5;exitY=1;exitDx=0;exitDy=0;" edge="1" parent="1" source="5kpx9OWCmVV_XEbnzuug-105" target="5kpx9OWCmVV_XEbnzuug-121">
          <mxGeometry width="50" height="50" relative="1" as="geometry">
            <mxPoint x="463" y="160" as="sourcePoint" />
            <mxPoint x="513" y="110" as="targetPoint" />
          </mxGeometry>
        </mxCell>
        <mxCell id="5kpx9OWCmVV_XEbnzuug-118" value="" style="edgeStyle=orthogonalEdgeStyle;rounded=0;orthogonalLoop=1;jettySize=auto;html=1;fontSize=10;" edge="1" parent="1" source="5kpx9OWCmVV_XEbnzuug-115" target="5kpx9OWCmVV_XEbnzuug-117">
          <mxGeometry relative="1" as="geometry" />
        </mxCell>
        <mxCell id="5kpx9OWCmVV_XEbnzuug-115" value="Click on Complete Stripe Verification button&amp;nbsp;" style="whiteSpace=wrap;html=1;fillColor=#dae8fc;strokeColor=#6c8ebf;" vertex="1" parent="1">
          <mxGeometry x="353" y="340" width="120" height="60" as="geometry" />
        </mxCell>
        <mxCell id="5kpx9OWCmVV_XEbnzuug-117" value="Fill your KYC details and submit" style="whiteSpace=wrap;html=1;fillColor=#dae8fc;strokeColor=#6c8ebf;" vertex="1" parent="1">
          <mxGeometry x="153" y="340" width="120" height="60" as="geometry" />
        </mxCell>
        <mxCell id="5kpx9OWCmVV_XEbnzuug-119" value="&lt;font style=&quot;font-size: 12px;&quot;&gt;Back to outlet list table&lt;/font&gt;" style="rounded=0;whiteSpace=wrap;html=1;fontSize=10;fillColor=#dae8fc;strokeColor=#6c8ebf;" vertex="1" parent="1">
          <mxGeometry x="553" y="490" width="120" height="60" as="geometry" />
        </mxCell>
        <mxCell id="5kpx9OWCmVV_XEbnzuug-121" value="Outlet Edit page" style="rounded=0;whiteSpace=wrap;html=1;fontSize=12;fillColor=#dae8fc;strokeColor=#6c8ebf;" vertex="1" parent="1">
          <mxGeometry x="553" y="200" width="120" height="60" as="geometry" />
        </mxCell>
        <mxCell id="5kpx9OWCmVV_XEbnzuug-122" value="" style="endArrow=classic;html=1;rounded=0;fontSize=12;exitX=0.5;exitY=1;exitDx=0;exitDy=0;entryX=0.5;entryY=0;entryDx=0;entryDy=0;" edge="1" parent="1" source="5kpx9OWCmVV_XEbnzuug-121" target="5kpx9OWCmVV_XEbnzuug-106">
          <mxGeometry width="50" height="50" relative="1" as="geometry">
            <mxPoint x="390" y="360" as="sourcePoint" />
            <mxPoint x="440" y="310" as="targetPoint" />
          </mxGeometry>
        </mxCell>
        <mxCell id="5kpx9OWCmVV_XEbnzuug-124" value="No" style="endArrow=classic;html=1;rounded=0;fontSize=12;exitX=0;exitY=0.5;exitDx=0;exitDy=0;entryX=1;entryY=0.5;entryDx=0;entryDy=0;" edge="1" parent="1" source="5kpx9OWCmVV_XEbnzuug-106" target="5kpx9OWCmVV_XEbnzuug-115">
          <mxGeometry width="50" height="50" relative="1" as="geometry">
            <mxPoint x="390" y="360" as="sourcePoint" />
            <mxPoint x="440" y="310" as="targetPoint" />
          </mxGeometry>
        </mxCell>
        <mxCell id="5kpx9OWCmVV_XEbnzuug-125" value="Yes" style="endArrow=classic;html=1;rounded=0;fontSize=12;exitX=0.5;exitY=1;exitDx=0;exitDy=0;entryX=0.5;entryY=0;entryDx=0;entryDy=0;" edge="1" parent="1" source="5kpx9OWCmVV_XEbnzuug-106" target="5kpx9OWCmVV_XEbnzuug-119">
          <mxGeometry width="50" height="50" relative="1" as="geometry">
            <mxPoint x="390" y="360" as="sourcePoint" />
            <mxPoint x="440" y="310" as="targetPoint" />
          </mxGeometry>
        </mxCell>
        <mxCell id="5kpx9OWCmVV_XEbnzuug-126" value="" style="endArrow=classic;html=1;rounded=0;fontSize=12;exitX=0.5;exitY=0;exitDx=0;exitDy=0;entryX=0;entryY=0.5;entryDx=0;entryDy=0;" edge="1" parent="1" source="5kpx9OWCmVV_XEbnzuug-117" target="5kpx9OWCmVV_XEbnzuug-121">
          <mxGeometry width="50" height="50" relative="1" as="geometry">
            <mxPoint x="390" y="360" as="sourcePoint" />
            <mxPoint x="440" y="310" as="targetPoint" />
            <Array as="points">
              <mxPoint x="213" y="230" />
            </Array>
          </mxGeometry>
        </mxCell>
      </root>
    </mxGraphModel>
  </diagram>
</mxfile>
